<?xml version="1.0" encoding="utf-8"?>
<!-- Generator: Adobe Illustrator 24.3.0, SVG Export Plug-In . SVG Version: 6.00 Build 0)  -->
<svg version="1.1" id="Capa_1" xmlns="http://www.w3.org/2000/svg" xmlns:xlink="http://www.w3.org/1999/xlink" x="0px" y="0px"
	 viewBox="0 0 194.91 71.24" style="enable-background:new 0 0 194.91 71.24;" xml:space="preserve">
<style type="text/css">
	.st0{fill:#383432;}
	.st1{fill:#1489B7;}
	.st2{fill-rule:evenodd;clip-rule:evenodd;fill:#383432;}
</style>
<g>
	<path class="st0" d="M2.57,8.15V2.09h13.57c2.87,0,5.19,0.8,6.95,2.4c1.77,1.6,2.65,3.83,2.65,6.68c0,1.08-0.15,2.08-0.45,3
		c-0.3,0.92-0.66,1.64-1.07,2.17c-0.41,0.53-0.83,0.98-1.25,1.35c-0.42,0.37-0.79,0.63-1.09,0.76l-0.44,0.24v0.1
		c0.76,0.33,1.36,0.91,1.8,1.74L25.08,24c0.33,0.62,0.99,0.93,1.97,0.93h0.49v6.06h-3.99c-1.1,0-1.95-0.14-2.57-0.42
		s-1.14-0.86-1.58-1.73l-3.41-6.49c-0.24-0.43-0.54-0.73-0.9-0.88c-0.36-0.15-0.92-0.23-1.69-0.23h-0.97v9.75H5.19V8.16L2.57,8.15
		L2.57,8.15z M12.44,15.18h2.51c2.18,0,3.28-1.18,3.28-3.55c0-2.32-1.05-3.47-3.16-3.47h-2.62L12.44,15.18L12.44,15.18z"/>
	<path class="st0" d="M28.8,16.36c0-4.17,1.43-7.67,4.3-10.51S39.57,1.6,43.92,1.6c4.34,0,7.95,1.41,10.82,4.24s4.3,6.34,4.3,10.52
		c0,4.29-1.43,7.88-4.3,10.78c-2.87,2.89-6.47,4.34-10.82,4.34c-4.34,0-7.95-1.45-10.82-4.34C30.23,24.24,28.8,20.65,28.8,16.36z
		 M36.32,16.36c0,2.39,0.73,4.4,2.2,6.02c1.47,1.62,3.27,2.43,5.4,2.43c2.13,0,3.93-0.81,5.4-2.43s2.2-3.62,2.2-6.02
		c0-2.29-0.73-4.21-2.2-5.76c-1.47-1.55-3.27-2.33-5.4-2.33c-2.13,0-3.93,0.78-5.4,2.33C37.05,12.15,36.32,14.07,36.32,16.36z"/>
	<path class="st0" d="M61.12,8.15V2.09H73c4.58,0,8.21,1.27,10.89,3.82s4.03,6.07,4.03,10.57c0,4.53-1.34,8.08-4.02,10.65
		c-2.68,2.57-6.31,3.86-10.9,3.86h-6.3c-1.03,0-1.78-0.24-2.25-0.71c-0.47-0.47-0.71-1.22-0.71-2.25V8.16h-2.62V8.15z M70.99,24.04
		c0,0.59,0.3,0.89,0.89,0.89h0.85c2.42,0,4.31-0.73,5.65-2.18c1.35-1.45,2.02-3.54,2.02-6.27c0-2.7-0.69-4.76-2.06-6.19
		c-1.38-1.43-3.25-2.14-5.61-2.14h-1.74V24.04z"/>
	<path class="st0" d="M90.02,8.15V2.09h13.57c2.87,0,5.19,0.8,6.95,2.4c1.77,1.6,2.65,3.83,2.65,6.68c0,1.08-0.15,2.08-0.45,3
		s-0.66,1.64-1.07,2.17c-0.41,0.53-0.83,0.98-1.25,1.35c-0.42,0.37-0.79,0.63-1.09,0.76l-0.44,0.24v0.1
		c0.76,0.33,1.36,0.91,1.8,1.74l1.84,3.47c0.33,0.62,0.99,0.93,1.97,0.93h0.49v6.06H111c-1.1,0-1.95-0.14-2.57-0.42
		s-1.14-0.86-1.58-1.73l-3.41-6.49c-0.24-0.43-0.54-0.73-0.9-0.88c-0.36-0.15-0.92-0.23-1.69-0.23h-0.97v9.75h-7.24V8.16L90.02,8.15
		L90.02,8.15z M99.88,15.18h2.51c2.18,0,3.28-1.18,3.28-3.55c0-2.32-1.05-3.47-3.16-3.47h-2.62L99.88,15.18L99.88,15.18z"/>
	<path class="st0" d="M116.52,30.98v-6.06h3.03V8.14h-3.03V2.08h12.89v6.06h-3.03v16.78h3.03v6.06H116.52z"/>
	<path class="st0" d="M131.64,16.32c0-4.16,1.42-7.65,4.26-10.48s6.41-4.25,10.7-4.25c4.14,0,7.54,1.07,10.18,3.2l0.69,0.62
		l-4.05,5.15c-0.21-0.16-0.51-0.37-0.91-0.63c-0.4-0.26-1.17-0.61-2.33-1.03c-1.16-0.43-2.3-0.64-3.43-0.64
		c-2.03,0-3.8,0.73-5.32,2.19s-2.28,3.39-2.28,5.8c0,2.68,0.78,4.78,2.33,6.29s3.43,2.26,5.64,2.26c1.13,0,2.19-0.18,3.19-0.53
		c0.99-0.35,1.71-0.7,2.14-1.04l0.65-0.53v-1.08c0-0.59-0.3-0.88-0.89-0.88h-1.74v-6.03h6.1c1.03,0,1.77,0.23,2.24,0.7
		s0.7,1.21,0.7,2.23v13.34h-6.06v-0.81l0.04-1.2h-0.08c-0.08,0.08-0.19,0.17-0.35,0.28s-0.48,0.3-0.99,0.58
		c-0.51,0.28-1.04,0.54-1.59,0.77c-0.55,0.23-1.28,0.43-2.17,0.61c-0.9,0.18-1.8,0.27-2.7,0.27c-3.86,0-7.15-1.35-9.89-4.05
		C133.01,24.72,131.64,21.02,131.64,16.32z"/>
	<path class="st0" d="M162.03,16.36c0-4.17,1.43-7.67,4.3-10.51c2.87-2.84,6.47-4.25,10.82-4.25c4.34,0,7.95,1.41,10.82,4.24
		s4.3,6.34,4.3,10.52c0,4.29-1.43,7.88-4.3,10.78c-2.87,2.89-6.47,4.34-10.82,4.34c-4.34,0-7.95-1.45-10.82-4.34
		C163.47,24.24,162.03,20.65,162.03,16.36z M169.55,16.36c0,2.39,0.73,4.4,2.2,6.02c1.47,1.62,3.27,2.43,5.4,2.43
		s3.93-0.81,5.4-2.43s2.2-3.62,2.2-6.02c0-2.29-0.73-4.21-2.2-5.76c-1.47-1.55-3.27-2.33-5.4-2.33s-3.93,0.78-5.4,2.33
		C170.29,12.15,169.55,14.07,169.55,16.36z"/>
</g>
<g>
	<path class="st1" d="M3.9,45.15c0-2.07,0.71-3.8,2.13-5.2s3.2-2.1,5.34-2.1c0.5,0,1.03,0.05,1.61,0.16
		c0.57,0.11,1.17,0.28,1.78,0.51c0.62,0.23,1.13,0.58,1.53,1.05s0.61,1.02,0.61,1.65v1.9h-3.23v-0.79c0-0.37-0.23-0.66-0.7-0.86
		c-0.46-0.2-0.97-0.3-1.52-0.3c-1.1,0-2.01,0.35-2.72,1.04c-0.71,0.69-1.07,1.67-1.07,2.93c0,1.18,0.38,2.19,1.14,3.03
		s1.67,1.26,2.73,1.26c0.47,0,0.94-0.06,1.39-0.19c0.46-0.13,0.84-0.28,1.16-0.46c0.32-0.18,0.59-0.36,0.84-0.54
		c0.24-0.18,0.43-0.33,0.55-0.45l0.18-0.21l1.83,2.58c-0.05,0.07-0.14,0.16-0.25,0.27c-0.11,0.12-0.37,0.33-0.75,0.63
		c-0.39,0.31-0.8,0.57-1.23,0.79c-0.43,0.22-0.99,0.43-1.68,0.62s-1.39,0.29-2.1,0.29c-2.25,0-4.07-0.72-5.47-2.16
		C4.6,49.17,3.9,47.35,3.9,45.15z"/>
	<path class="st1" d="M18.43,45.22c0-2.08,0.72-3.83,2.15-5.25s3.23-2.12,5.4-2.12s3.97,0.71,5.4,2.12
		c1.43,1.41,2.15,3.16,2.15,5.25c0,2.14-0.72,3.94-2.15,5.38c-1.43,1.45-3.23,2.17-5.4,2.17s-3.97-0.72-5.4-2.17
		C19.14,49.16,18.43,47.36,18.43,45.22z M22.18,45.22c0,1.2,0.37,2.2,1.1,3.01c0.73,0.81,1.63,1.21,2.7,1.21
		c1.06,0,1.96-0.4,2.7-1.21c0.73-0.81,1.1-1.81,1.1-3.01c0-1.14-0.37-2.1-1.1-2.88c-0.73-0.78-1.63-1.16-2.7-1.16
		c-1.06,0-1.96,0.39-2.7,1.16C22.55,43.12,22.18,44.08,22.18,45.22z"/>
	<path class="st1" d="M34.57,41.12v-3.03h6.78c1.43,0,2.59,0.4,3.47,1.2c0.88,0.8,1.32,1.91,1.32,3.34c0,0.54-0.07,1.04-0.23,1.5
		s-0.33,0.82-0.54,1.08s-0.42,0.49-0.63,0.68c-0.21,0.19-0.39,0.31-0.55,0.38l-0.22,0.12v0.05c0.38,0.16,0.68,0.45,0.9,0.87
		l0.92,1.73c0.16,0.31,0.49,0.46,0.99,0.46h0.25v3.03h-1.99c-0.55,0-0.97-0.07-1.28-0.21s-0.57-0.43-0.79-0.86l-1.7-3.24
		C41.15,48,41,47.86,40.82,47.78s-0.46-0.11-0.84-0.11H39.5v4.87h-3.62v-11.4h-1.31V41.12z M39.5,44.63h1.25
		c1.09,0,1.64-0.59,1.64-1.77c0-1.16-0.53-1.73-1.58-1.73H39.5V44.63z"/>
	<path class="st1" d="M47.49,42.35v-2.87c0-0.51,0.1-0.87,0.31-1.08s0.57-0.31,1.08-0.31H59.2c0.51,0,0.87,0.1,1.08,0.31
		c0.21,0.21,0.31,0.57,0.31,1.08v2.87h-3.13v-0.79c0-0.3-0.15-0.44-0.44-0.44h-1.16v11.4h-3.62v-11.4h-1.17
		c-0.3,0-0.44,0.15-0.44,0.44v0.79H47.49z"/>
	<path class="st1" d="M61.44,41.12v-3.03h9.09c0.51,0,0.89,0.12,1.12,0.35c0.23,0.23,0.35,0.61,0.35,1.12v2.79h-3.22v-0.79
		c0-0.3-0.15-0.44-0.44-0.44h-1.96v2.62h4.12v3.03h-4.12v2.29c0,0.3,0.15,0.44,0.44,0.44h2c0.3,0,0.44-0.15,0.44-0.44v-0.79h3.23
		v2.78c0,0.51-0.12,0.89-0.35,1.12c-0.24,0.24-0.61,0.35-1.12,0.35h-6.78c-0.51,0-0.89-0.12-1.12-0.35s-0.35-0.61-0.35-1.12v-9.92
		L61.44,41.12L61.44,41.12z M65.64,37.16l1.64-3.03h3.17l-2.38,3.03H65.64z"/>
	<path class="st1" d="M73.42,50.42l2-2.53c0.04,0.04,0.1,0.1,0.17,0.18c0.07,0.08,0.23,0.22,0.46,0.42c0.23,0.2,0.47,0.37,0.72,0.52
		c0.25,0.15,0.55,0.29,0.91,0.41c0.36,0.12,0.7,0.18,1.04,0.18c0.97,0,1.45-0.36,1.45-1.09c0-0.29-0.23-0.56-0.68-0.82
		c-0.45-0.26-1-0.53-1.64-0.81s-1.28-0.6-1.91-0.96c-0.64-0.36-1.18-0.87-1.63-1.53c-0.45-0.65-0.67-1.4-0.67-2.25
		c0-1.27,0.49-2.3,1.48-3.1c0.99-0.8,2.2-1.19,3.65-1.19c0.69,0,1.38,0.1,2.05,0.31c0.67,0.2,1.26,0.55,1.77,1.05
		c0.51,0.5,0.77,1.09,0.77,1.78v1.57h-3.21v-0.65c0-0.25-0.15-0.46-0.44-0.63s-0.62-0.25-0.98-0.25c-0.4,0-0.75,0.08-1.04,0.25
		s-0.43,0.41-0.43,0.72c0,0.27,0.16,0.53,0.48,0.76c0.32,0.23,0.73,0.43,1.21,0.6c0.48,0.17,1.01,0.39,1.57,0.67
		c0.56,0.28,1.09,0.58,1.57,0.92c0.48,0.33,0.89,0.79,1.21,1.38c0.32,0.58,0.48,1.25,0.48,2c0,1.24-0.46,2.29-1.38,3.15
		s-2.16,1.29-3.73,1.29c-0.63,0-1.24-0.08-1.84-0.24c-0.59-0.16-1.09-0.36-1.48-0.59s-0.75-0.46-1.06-0.7
		c-0.31-0.23-0.54-0.43-0.68-0.59L73.42,50.42z"/>
	<path class="st1" d="M90.22,50.42l2-2.53c0.04,0.04,0.1,0.1,0.17,0.18c0.07,0.08,0.23,0.22,0.46,0.42c0.23,0.2,0.47,0.37,0.72,0.52
		c0.25,0.15,0.55,0.29,0.91,0.41c0.36,0.12,0.7,0.18,1.04,0.18c0.97,0,1.45-0.36,1.45-1.09c0-0.29-0.23-0.56-0.68-0.82
		c-0.45-0.26-1-0.53-1.64-0.81s-1.28-0.6-1.91-0.96c-0.64-0.36-1.18-0.87-1.63-1.53c-0.45-0.65-0.67-1.4-0.67-2.25
		c0-1.27,0.49-2.3,1.48-3.1c0.99-0.8,2.2-1.19,3.65-1.19c0.69,0,1.38,0.1,2.05,0.31c0.67,0.2,1.26,0.55,1.77,1.05
		c0.51,0.5,0.77,1.09,0.77,1.78v1.57h-3.21v-0.65c0-0.25-0.15-0.46-0.44-0.63s-0.62-0.25-0.98-0.25c-0.4,0-0.75,0.08-1.04,0.25
		s-0.43,0.41-0.43,0.72c0,0.27,0.16,0.53,0.48,0.76c0.32,0.23,0.73,0.43,1.21,0.6c0.48,0.17,1.01,0.39,1.57,0.67
		c0.56,0.28,1.09,0.58,1.57,0.92c0.48,0.33,0.89,0.79,1.21,1.38c0.32,0.58,0.48,1.25,0.48,2c0,1.24-0.46,2.29-1.38,3.15
		s-2.16,1.29-3.73,1.29c-0.63,0-1.24-0.08-1.84-0.24c-0.59-0.16-1.09-0.36-1.48-0.59s-0.75-0.46-1.06-0.7
		c-0.31-0.23-0.54-0.43-0.68-0.59L90.22,50.42z"/>
	<path class="st1" d="M101.79,41.12v-3.03h9.09c0.51,0,0.89,0.12,1.12,0.35c0.23,0.23,0.35,0.61,0.35,1.12v2.79h-3.22v-0.79
		c0-0.3-0.15-0.44-0.44-0.44h-1.96v2.62h4.12v3.03h-4.12v2.29c0,0.3,0.15,0.44,0.44,0.44h2c0.3,0,0.44-0.15,0.44-0.44v-0.79h3.23
		v2.78c0,0.51-0.12,0.89-0.35,1.12c-0.24,0.24-0.61,0.35-1.12,0.35h-6.78c-0.51,0-0.89-0.12-1.12-0.35s-0.35-0.61-0.35-1.12v-9.92
		L101.79,41.12L101.79,41.12z"/>
	<path class="st1" d="M113.7,45.22c0-2.08,0.72-3.83,2.15-5.24s3.23-2.11,5.4-2.11s3.97,0.7,5.4,2.11c1.43,1.41,2.15,3.15,2.15,5.24
		c0,1.45-0.47,2.86-1.41,4.24l1.41,1.16l-2.12,2.37l-1.43-1.35c-1.12,0.76-2.45,1.13-4,1.13c-2.17,0-3.97-0.72-5.4-2.17
		C114.41,49.16,113.7,47.36,113.7,45.22z M117.45,45.22c0,1.2,0.37,2.2,1.1,3.01c0.73,0.81,1.63,1.21,2.7,1.21
		c0.27,0,0.52-0.02,0.75-0.05c0.23-0.04,0.38-0.07,0.46-0.11l0.14-0.06l-1.25-1.06l2.1-2.37l1.25,1.23
		c0.23-0.57,0.34-1.16,0.34-1.79c0-1.14-0.37-2.1-1.1-2.87c-0.73-0.77-1.63-1.15-2.7-1.15s-1.96,0.38-2.7,1.15
		C117.82,43.12,117.45,44.08,117.45,45.22z"/>
	<path class="st1" d="M129.68,41.12v-3.03h3.45c0.51,0,0.89,0.12,1.12,0.35c0.24,0.23,0.35,0.61,0.35,1.12v7.55
		c0,0.74,0.21,1.32,0.64,1.72c0.42,0.4,0.99,0.61,1.69,0.61s1.26-0.2,1.68-0.61c0.42-0.4,0.64-0.98,0.64-1.72v-7.55
		c0-0.51,0.12-0.89,0.35-1.12c0.23-0.23,0.61-0.35,1.12-0.35h3.45v3.03h-0.86c-0.29,0-0.44,0.15-0.44,0.44v5.65
		c0,1.64-0.54,2.98-1.62,4.01s-2.52,1.55-4.3,1.55c-1.79,0-3.23-0.52-4.32-1.55c-1.09-1.03-1.64-2.37-1.64-4.01v-5.65
		c0-0.3-0.15-0.44-0.44-0.44H129.68z"/>
	<path class="st1" d="M145.13,41.12v-3.03h9.09c0.51,0,0.89,0.12,1.12,0.35c0.23,0.23,0.35,0.61,0.35,1.12v2.79h-3.22v-0.79
		c0-0.3-0.15-0.44-0.44-0.44h-1.96v2.62h4.12v3.03h-4.12v2.29c0,0.3,0.15,0.44,0.44,0.44h2c0.3,0,0.44-0.15,0.44-0.44v-0.79h3.23
		v2.78c0,0.51-0.12,0.89-0.35,1.12s-0.61,0.35-1.12,0.35h-6.78c-0.51,0-0.89-0.12-1.12-0.35s-0.35-0.61-0.35-1.12v-9.92
		L145.13,41.12L145.13,41.12z"/>
	<path class="st1" d="M157.18,52.52v-3.03h1.52v-8.38h-1.52v-3.03h6.44v3.03h-1.52v8.38h1.52v3.03H157.18z"/>
	<path class="st1" d="M164.81,41.12v-3.03h6.78c1.43,0,2.59,0.4,3.47,1.2s1.32,1.91,1.32,3.34c0,0.54-0.07,1.04-0.23,1.5
		c-0.15,0.46-0.33,0.82-0.54,1.08s-0.42,0.49-0.63,0.68c-0.21,0.19-0.39,0.31-0.55,0.38l-0.22,0.12v0.05
		c0.38,0.16,0.68,0.45,0.9,0.87l0.92,1.73c0.16,0.31,0.49,0.46,0.99,0.46h0.25v3.03h-1.99c-0.55,0-0.97-0.07-1.28-0.21
		s-0.57-0.43-0.79-0.86l-1.7-3.24c-0.12-0.22-0.27-0.36-0.45-0.44s-0.46-0.11-0.84-0.11h-0.48v4.87h-3.62v-11.4h-1.31V41.12z
		 M169.73,44.63h1.25c1.09,0,1.64-0.59,1.64-1.77c0-1.16-0.53-1.73-1.58-1.73h-1.31V44.63z"/>
	<path class="st1" d="M177.62,52.52v-3.03H178c0.16,0,0.28-0.03,0.34-0.09c0.07-0.06,0.13-0.18,0.21-0.35l3.93-10.96h3.75
		l3.93,10.96c0.07,0.18,0.13,0.3,0.2,0.35c0.07,0.06,0.19,0.09,0.35,0.09h0.38v3.03h-2.33c-0.5,0-0.87-0.08-1.11-0.25
		s-0.44-0.48-0.59-0.93l-0.62-1.86h-4.2l-0.63,1.86c-0.15,0.45-0.35,0.76-0.59,0.93s-0.61,0.25-1.11,0.25H177.62z M183.03,46.57
		h2.67l-0.73-2.4c-0.19-0.6-0.38-1.4-0.58-2.38h-0.05c-0.2,0.99-0.4,1.78-0.58,2.38L183.03,46.57z"/>
</g>
<g>
	<path class="st0" d="M113.44,66.08c0-1.22-1.03-1.26-1.03-1.26v-1.35c0,0,1.03-0.05,1.03-1.29v-1.04c0-1.85,1.46-2.05,2.15-2.05
		c0.22,0,0.38,0.01,0.38,0.01v1.14c0,0-0.1-0.01-0.22-0.01c-0.33,0-1,0.11-1,1.03v1.32c0,1.22-1,1.54-1,1.54v0.02c0,0,1,0.28,1,1.53
		v1.46c0,0.94,0.67,1.03,1,1.03c0.12,0,0.22-0.01,0.22-0.01v1.14c0,0-0.16,0.02-0.38,0.02c-0.69,0-2.15-0.21-2.15-2.07V66.08z"/>
	<path class="st0" d="M117.03,68.17c0.33,0,0.98-0.1,0.98-1.03v-1.46c0-1.25,1.01-1.53,1.01-1.53v-0.02c0,0-1.01-0.33-1.01-1.54
		v-1.32c0-0.92-0.66-1.03-0.98-1.03c-0.12,0-0.22,0.01-0.22,0.01V59.1c0,0,0.16-0.01,0.38-0.01c0.69,0,2.15,0.21,2.15,2.05v1.04
		c0,1.24,1.03,1.29,1.03,1.29v1.35c0,0-1.03,0.05-1.03,1.26v1.18c0,1.86-1.46,2.07-2.15,2.07c-0.22,0-0.38-0.02-0.38-0.02v-1.14
		C116.82,68.16,116.91,68.17,117.03,68.17z"/>
</g>
<path class="st2" d="M78.84,64.98l-3.6,3.6c-0.08,0.08-0.12,0.18-0.12,0.3c0,0.23,0.19,0.42,0.42,0.42c0.06,0,0.12-0.01,0.17-0.04
	c0,0,6-2.6,6.07-2.63c0.14-0.06,0.25-0.19,0.29-0.34l0.97-3.5l0.2,0.19c0.2,0.2,0.53,0.2,0.74,0c0.2-0.2,0.2-0.53,0-0.74l-3-3
	c-0.2-0.2-0.53-0.2-0.74,0c-0.2,0.2-0.2,0.53,0,0.74l0.19,0.19l-3.51,0.98c-0.15,0.04-0.28,0.16-0.34,0.3l-2.63,6.07
	c-0.02,0.05-0.03,0.11-0.03,0.17c0,0.24,0.19,0.42,0.43,0.42c0.12,0,0.23-0.05,0.31-0.13l3.6-3.6c-0.05-0.13-0.08-0.26-0.08-0.4
	c0-0.59,0.48-1.06,1.06-1.06c0.59,0,1.06,0.48,1.06,1.06c0,0.59-0.48,1.06-1.06,1.06C79.1,65.06,78.97,65.03,78.84,64.98z"/>
<path class="st2" d="M39.94,63.4c-0.21,0.21-0.31,0.51-0.36,0.81l-0.81,3.83c-0.11,0.68,0.57,1.36,1.26,1.26l3.84-0.8
	c0.28-0.05,0.59-0.14,0.79-0.35l4.06-4.07c0.32-0.33,0.32-0.86,0-1.18l-3.55-3.55c-0.33-0.33-0.86-0.33-1.18,0L39.94,63.4z
	 M43.84,67.49l-1.99,0.38l-1.65-1.65l0.38-1.99l2.96-2.96c0.16-0.16,0.43-0.16,0.59,0c0.16,0.16,0.16,0.43,0,0.59L41.4,64.6
	c-0.2,0.2-0.2,0.54,0,0.74c0.2,0.2,0.53,0.2,0.74,0l2.74-2.74c0.16-0.16,0.43-0.16,0.59,0c0.16,0.16,0.16,0.43,0,0.59l-2.73,2.74
	c-0.2,0.2-0.2,0.54,0,0.74c0.2,0.2,0.53,0.2,0.74,0l2.74-2.74c0.16-0.16,0.43-0.16,0.59,0c0.16,0.16,0.16,0.43,0,0.59L43.84,67.49z"
	/>
<path class="st2" d="M149.18,65.69c0.23,0,0.42,0.19,0.42,0.43c0,0.23-0.19,0.42-0.42,0.42h-1.59c-0.29,0-0.53,0.24-0.53,0.53
	c0,0.29,0.24,0.53,0.53,0.53h5.95c0.29,0,0.53-0.24,0.53-0.53c0-0.29-0.24-0.53-0.53-0.53h-1.59c-0.23,0-0.43-0.19-0.43-0.42
	c0-0.23,0.19-0.43,0.43-0.43h2.76c0.47,0,0.85-0.38,0.85-0.85v-6.59c0-0.47-0.38-0.85-0.85-0.85h-8.29c-0.47,0-0.85,0.38-0.85,0.85
	v6.59c0,0.47,0.38,0.85,0.85,0.85H149.18z M150.03,64.1c0-0.29,0.24-0.53,0.53-0.53c0.29,0,0.53,0.24,0.53,0.53
	c0,0.29-0.24,0.53-0.53,0.53C150.27,64.63,150.03,64.39,150.03,64.1z M147.09,58.47h6.93c0.26,0,0.47,0.21,0.47,0.47v3.32
	c0,0.26-0.21,0.47-0.47,0.47h-6.93c-0.26,0-0.47-0.21-0.47-0.47v-3.32C146.63,58.67,146.84,58.47,147.09,58.47z"/>
<path class="st2" d="M180.59,67.36c0,0.47,0.38,0.85,0.85,0.85h5.74c0.47,0,0.85-0.38,0.85-0.85v-8.5c0-0.47-0.38-0.85-0.85-0.85
	h-5.74c-0.47,0-0.85,0.38-0.85,0.85V67.36z M182.12,59.07h4.38c0.26,0,0.47,0.21,0.47,0.47v5.23c0,0.26-0.21,0.47-0.47,0.47h-4.38
	c-0.26,0-0.47-0.21-0.47-0.47v-5.23C181.65,59.28,181.86,59.07,182.12,59.07z M183.78,66.62c0-0.29,0.24-0.53,0.53-0.53
	c0.29,0,0.53,0.24,0.53,0.53c0,0.29-0.24,0.53-0.53,0.53C184.02,67.15,183.78,66.91,183.78,66.62z"/>
<path class="st2" d="M8.19,65.99c0,0.47,0.38,0.85,0.85,0.85h1.28v1.31c0,0.24,0.19,0.42,0.42,0.42c0.12,0,0.23-0.05,0.3-0.13
	l1.61-1.61h4.68c0.47,0,0.85-0.38,0.85-0.85v-5.31c0-0.47-0.38-0.85-0.85-0.85H9.04c-0.47,0-0.85,0.38-0.85,0.85V65.99z
	 M10.74,63.55c0-0.29,0.24-0.53,0.53-0.53c0.29,0,0.53,0.24,0.53,0.53c0,0.29-0.24,0.53-0.53,0.53
	C10.98,64.08,10.74,63.84,10.74,63.55z M12.66,63.55c0-0.29,0.24-0.53,0.53-0.53c0.29,0,0.53,0.24,0.53,0.53
	c0,0.29-0.24,0.53-0.53,0.53C12.89,64.08,12.66,63.84,12.66,63.55z M14.57,63.55c0-0.29,0.24-0.53,0.53-0.53
	c0.29,0,0.53,0.24,0.53,0.53c0,0.29-0.24,0.53-0.53,0.53C14.81,64.08,14.57,63.84,14.57,63.55z"/>
<path class="st2" d="M29.33,64.21c0,0.6-0.49,1.09-1.09,1.09c-0.6,0-1.09-0.49-1.09-1.09c0-0.6,0.49-1.09,1.09-1.09
	C28.84,63.11,29.33,63.6,29.33,64.21z"/>
<path class="st2" d="M61.53,64.21c0,0.6-0.49,1.09-1.09,1.09c-0.6,0-1.09-0.49-1.09-1.09c0-0.6,0.49-1.09,1.09-1.09
	C61.04,63.11,61.53,63.6,61.53,64.21z"/>
<path class="st2" d="M99.23,64.21c0,0.6-0.49,1.09-1.09,1.09c-0.6,0-1.09-0.49-1.09-1.09c0-0.6,0.49-1.09,1.09-1.09
	C98.74,63.11,99.23,63.6,99.23,64.21z"/>
<path class="st2" d="M135.08,64.21c0,0.6-0.49,1.09-1.09,1.09c-0.6,0-1.09-0.49-1.09-1.09c0-0.6,0.49-1.09,1.09-1.09
	C134.59,63.11,135.08,63.6,135.08,64.21z"/>
<path class="st2" d="M167.55,64.21c0,0.6-0.49,1.09-1.09,1.09c-0.6,0-1.09-0.49-1.09-1.09c0-0.6,0.49-1.09,1.09-1.09
	C167.06,63.11,167.55,63.6,167.55,64.21z"/>
</svg>
